<svg xmlns="http://www.w3.org/2000/svg" viewBox="0 0 100 130" fill="none">
  <defs>
    <filter id="sh" x="-15%" y="-15%" width="140%" height="140%">
      <feDropShadow dx="2" dy="3" stdDeviation="4" flood-color="#3A72C0" flood-opacity="0.3"/>
    </filter>
  </defs>
  <!-- Document body -->
  <path d="M14,8 L67,8 L92,33 L92,120 Q92,126 86,126 L14,126 Q8,126 8,120 L8,14 Q8,8 14,8 Z"
        fill="white" stroke="#3A72C0" stroke-width="6" stroke-linejoin="round"
        filter="url(#sh)"/>
  <!-- Fold crease -->
  <path d="M67,8 L67,33 L92,33"
        fill="none" stroke="#3A72C0" stroke-width="6" stroke-linejoin="miter"/>
  <!-- Fold flap -->
  <path d="M67,8 L92,33 L67,33 Z" fill="#2558A4"/>
  <!-- PDFree text as path outline -->
  <path d="M5.82,0.00L5.82,-57.27L24.38,-57.27C31.41,-57.27 35.99,-56.98 38.12,-56.41C41.41,-55.55 44.15,-53.68 46.37,-50.80C48.58,-47.92 49.69,-44.21 49.69,-39.65C49.69,-36.13 49.05,-33.18 47.77,-30.78C46.50,-28.39 44.88,-26.50 42.91,-25.14C40.94,-23.77 38.95,-22.86 36.91,-22.42C34.15,-21.88 30.16,-21.60 24.92,-21.60L17.38,-21.60L17.38,0.00L5.82,0.00M17.38,-47.58L17.38,-31.33L23.71,-31.33C28.27,-31.33 31.32,-31.63 32.85,-32.23C34.39,-32.83 35.59,-33.76 36.46,-35.04C37.34,-36.32 37.77,-37.80 37.77,-39.49C37.77,-41.58 37.16,-43.29 35.94,-44.65C34.71,-46.00 33.16,-46.85 31.29,-47.19C29.91,-47.45 27.14,-47.58 22.97,-47.58L17.38,-47.58M58.78,-57.27L79.91,-57.27C84.68,-57.27 88.31,-56.90 90.81,-56.17C94.17,-55.18 97.05,-53.42 99.45,-50.90C101.84,-48.37 103.66,-45.28 104.91,-41.62C106.16,-37.96 106.79,-33.45 106.79,-28.09C106.79,-23.37 106.20,-19.31 105.03,-15.90C103.60,-11.73 101.55,-8.36 98.90,-5.78C96.89,-3.83 94.18,-2.30 90.77,-1.21C88.22,-0.40 84.81,0.00 80.54,0.00L58.78,0.00L58.78,-57.27M70.34,-47.58L70.34,-9.65L78.98,-9.65C82.21,-9.65 84.54,-9.83 85.97,-10.20C87.84,-10.66 89.40,-11.46 90.64,-12.58C91.87,-13.70 92.88,-15.54 93.66,-18.11C94.45,-20.67 94.84,-24.17 94.84,-28.59C94.84,-33.02 94.45,-36.42 93.66,-38.79C92.88,-41.16 91.79,-43.01 90.38,-44.34C88.98,-45.66 87.19,-46.56 85.03,-47.03C83.42,-47.40 80.25,-47.58 75.54,-47.58L70.34,-47.58M116.90,0.00L116.90,-57.27L156.16,-57.27L156.16,-47.58L128.46,-47.58L128.46,-34.02L152.37,-34.02L152.37,-24.34L128.46,-24.34L128.46,0.00L116.90,0.00M176.25,0.00L165.27,0.00L165.27,-41.48L175.47,-41.48L175.47,-35.59C177.21,-38.37 178.78,-40.21 180.18,-41.09C181.57,-41.98 183.15,-42.42 184.92,-42.42C187.42,-42.42 189.83,-41.73 192.15,-40.35L188.75,-30.78C186.90,-31.98 185.18,-32.58 183.59,-32.58C182.06,-32.58 180.76,-32.15 179.69,-31.31C178.62,-30.46 177.78,-28.93 177.17,-26.72C176.56,-24.51 176.25,-19.87 176.25,-12.81L176.25,0.00M220.77,-13.20L231.70,-11.37C230.30,-7.36 228.08,-4.30 225.04,-2.21C222.01,-0.11 218.21,0.94 213.66,0.94C206.44,0.94 201.10,-1.42 197.64,-6.13C194.91,-9.91 193.54,-14.67 193.54,-20.43C193.54,-27.30 195.34,-32.69 198.93,-36.58C202.52,-40.48 207.07,-42.42 212.56,-42.42C218.73,-42.42 223.60,-40.38 227.17,-36.31C230.74,-32.23 232.45,-25.99 232.29,-17.58L204.79,-17.58C204.87,-14.32 205.75,-11.79 207.45,-9.98C209.14,-8.17 211.25,-7.27 213.77,-7.27C215.49,-7.27 216.94,-7.73 218.11,-8.67C219.28,-9.61 220.17,-11.12 220.77,-13.20M221.39,-24.30C221.31,-27.47 220.49,-29.89 218.93,-31.54C217.37,-33.20 215.47,-34.02 213.23,-34.02C210.83,-34.02 208.85,-33.15 207.29,-31.41C205.73,-29.66 204.96,-27.29 204.98,-24.30L221.39,-24.30M264.77,-13.20L275.70,-11.37C274.30,-7.36 272.08,-4.30 269.04,-2.21C266.01,-0.11 262.21,0.94 257.66,0.94C250.44,0.94 245.10,-1.42 241.64,-6.13C238.91,-9.91 237.54,-14.67 237.54,-20.43C237.54,-27.30 239.34,-32.69 242.93,-36.58C246.52,-40.48 251.07,-42.42 256.56,-42.42C262.73,-42.42 267.60,-40.38 271.17,-36.31C274.74,-32.23 276.45,-25.99 276.29,-17.58L248.79,-17.58C248.87,-14.32 249.75,-11.79 251.45,-9.98C253.14,-8.17 255.25,-7.27 257.77,-7.27C259.49,-7.27 260.94,-7.73 262.11,-8.67C263.28,-9.61 264.17,-11.12 264.77,-13.20M265.39,-24.30C265.31,-27.47 264.49,-29.89 262.93,-31.54C261.37,-33.20 259.47,-34.02 257.23,-34.02C254.83,-34.02 252.85,-33.15 251.29,-31.41C249.73,-29.66 248.96,-27.29 248.98,-24.30L265.39,-24.30"
        fill="#1A3D87"
        transform="translate(50,80) rotate(-34) scale(0.2292) translate(-141.06,28.16)"/>
</svg>